<?xml version="1.0" standalone="no"?>
<!DOCTYPE svg PUBLIC "-//W3C//DTD SVG 20010904//EN"
 "http://www.w3.org/TR/2001/REC-SVG-20010904/DTD/svg10.dtd">
<svg version="1.0" xmlns="http://www.w3.org/2000/svg"
 width="414.000000pt" height="414.000000pt" viewBox="0 0 414.000000 414.000000"
 preserveAspectRatio="xMidYMid meet">
<metadata>
Created by potrace 1.11, written by Peter Selinger 2001-2013
</metadata>
<g transform="translate(0.000000,414.000000) scale(0.100000,-0.100000)"
fill="#000000" stroke="none">
<path d="M2975 3929 c-223 -49 -387 -148 -530 -320 -183 -219 -242 -501 -171
-826 9 -42 54 -143 97 -220 57 -99 207 -252 304 -309 161 -94 283 -128 465
-128 161 -1 202 5 317 45 225 79 415 249 522 466 31 63 70 184 80 248 8 54 7
250 -1 302 -14 82 -58 212 -89 263 -5 8 -13 24 -18 35 -35 79 -179 235 -281
305 -97 66 -231 122 -350 145 -77 15 -264 12 -345 -6z"/>
<path d="M745 3915 c-101 -22 -108 -24 -175 -52 -242 -101 -430 -297 -517
-538 -14 -38 -18 -54 -28 -100 -3 -11 -8 -31 -11 -45 -3 -14 -7 -77 -9 -140
-4 -124 10 -220 46 -323 22 -66 93 -202 115 -225 8 -7 14 -17 14 -22 0 -19
159 -168 226 -212 169 -112 313 -153 524 -152 241 3 464 96 632 266 169 172
257 377 264 618 4 163 -38 351 -104 460 -106 175 -219 287 -372 372 -41 22
-142 64 -180 74 -132 34 -314 42 -425 19z"/>
<path d="M1912 2009 c-292 -50 -536 -227 -665 -484 -45 -91 -61 -133 -81 -225
-64 -296 22 -600 233 -823 176 -186 406 -282 671 -280 182 2 348 51 495 148
80 53 213 186 260 260 174 274 197 604 61 891 -90 190 -231 336 -415 429 -178
90 -360 117 -559 84z"/>
</g>
</svg>
